<svg width="318" height="155" viewBox="0 0 318 155" fill="none" xmlns="http://www.w3.org/2000/svg">
<path fill-rule="evenodd" clip-rule="evenodd" d="M222.773 56.2275C221.304 48.7404 214.783 42.6417 206.264 40.5096C203.15 34.9563 198.744 30.0971 193.398 26.0808C184.115 19.0896 171.895 14.875 158.5 14.875C145.105 14.875 132.885 19.0896 123.603 26.0808C118.198 30.0971 113.791 35.0058 110.736 40.5096C102.218 42.6417 95.6965 48.6908 94.2277 56.2275C93.9927 57.2688 93.8752 58.3596 93.8752 59.5C93.8752 60.6404 93.9927 61.7313 94.2277 62.7725C95.6965 70.2596 102.218 76.3583 110.736 78.4904C113.791 83.9942 118.198 88.8533 123.485 92.82C132.768 99.8608 145.046 104.125 158.5 104.125C171.954 104.125 184.233 99.8608 193.574 92.82C198.861 88.8533 203.268 83.9446 206.323 78.4904C214.783 76.3583 221.304 70.3092 222.773 62.7725C223.008 61.7313 223.125 60.6404 223.125 59.5C223.125 58.3596 223.008 57.2688 222.773 56.2275ZM143.813 45.8646C139.757 45.8646 136.469 48.6395 136.469 52.0625C136.469 55.4855 139.757 58.2604 143.813 58.2604C147.869 58.2604 151.156 55.4855 151.156 52.0625C151.156 48.6395 147.869 45.8646 143.813 45.8646ZM173.188 45.8646C169.132 45.8646 165.844 48.6395 165.844 52.0625C165.844 55.4855 169.132 58.2604 173.188 58.2604C177.244 58.2604 180.531 55.4855 180.531 52.0625C180.531 48.6395 177.244 45.8646 173.188 45.8646ZM134.413 69.4167H182.588C183.645 69.4167 184.409 70.4083 183.939 71.2512C179.063 79.0358 169.487 84.2917 158.5 84.2917C147.514 84.2917 137.938 79.0358 133.062 71.2512C132.533 70.4083 133.297 69.4167 134.413 69.4167ZM198.518 69.3313C198.884 69.3745 199.242 69.4167 199.625 69.4167C206.088 69.4167 211.375 64.9542 211.375 59.5C211.375 54.0458 206.088 49.5833 199.625 49.5833C199.242 49.5833 198.884 49.6255 198.518 49.6687C198.323 49.6916 198.126 49.7149 197.921 49.7321C196.746 46.41 195.043 43.3358 192.869 40.5096C185.525 31.0392 172.894 24.7917 158.5 24.7917C144.106 24.7917 131.475 31.0392 124.131 40.5096C121.958 43.3358 120.254 46.41 119.079 49.7321C118.875 49.7149 118.678 49.6916 118.483 49.6687C118.117 49.6255 117.759 49.5833 117.375 49.5833C110.913 49.5833 105.625 54.0458 105.625 59.5C105.625 64.9542 110.913 69.4167 117.375 69.4167C117.759 69.4167 118.117 69.3745 118.483 69.3313C118.678 69.3084 118.875 69.2851 119.079 69.2679C120.254 72.59 121.958 75.6642 124.131 78.4904C131.475 87.9608 144.106 94.2083 158.5 94.2083C172.894 94.2083 185.525 87.9608 192.869 78.4904C195.043 75.6642 196.746 72.59 197.921 69.2679C198.126 69.2851 198.323 69.3084 198.518 69.3313Z" fill="#F05558"/>
<path d="M28.6402 125.553C22.4787 124.362 16.8994 123.001 11.9021 121.469C9.40351 120.703 7.74752 119.554 6.93414 118.022C6.12077 116.49 6.09697 114.474 6.86275 111.976L10.6135 99.7376C11.434 97.0605 12.627 95.3065 14.1926 94.4754C15.7915 93.6267 17.9295 93.6125 20.6065 94.433L34.3744 98.6526L32.7335 104.007L20.4954 100.256C18.9656 99.7872 17.9663 100.318 17.4974 101.847L13.7467 114.086C13.567 114.672 13.5881 115.194 13.8102 115.653C14.0656 116.094 14.4864 116.404 15.0729 116.584C18.0049 117.482 20.7015 118.239 23.1627 118.854L24.8623 113.309L19.8905 111.785L21.2971 107.196L33.1528 110.829L28.6402 125.553Z" fill="#F05558"/>
<path d="M51.4023 110.865L46.4912 130.665L39.697 128.98L43.3082 114.421L40.3964 113.699L41.6964 108.457L51.4023 110.865ZM46.5341 101.415L53.3282 103.1L51.9801 108.535L45.186 106.85L46.5341 101.415Z" fill="#F05558"/>
<path d="M70.1001 135.722C67.5121 135.469 65.0029 135.095 62.5725 134.602C60.7954 134.241 59.48 133.416 58.6261 132.127C57.7722 130.838 57.5257 129.305 57.8866 127.528L59.9165 117.532L57.5645 117.054L58.6391 111.762L60.9911 112.24L62.7304 107.695L68.8064 108.929L67.8511 113.633L72.7511 114.628L71.6765 119.92L66.7765 118.925L64.9456 127.941C64.866 128.333 64.9303 128.686 65.1386 129C65.3468 129.315 65.647 129.512 66.039 129.591L71.1349 130.626L70.1001 135.722Z" fill="#F05558"/>
<path d="M109.204 141.311L102.047 140.524L104.496 118.259L96.1469 117.34L96.7592 111.774L120.615 114.398L120.003 119.964L111.653 119.046L109.204 141.311Z" fill="#F05558"/>
<path d="M147.208 137.807C147.116 139.805 146.471 141.35 145.273 142.443C144.102 143.51 142.518 143.998 140.521 143.906L131.33 143.484C129.332 143.392 127.786 142.761 126.692 141.589C125.626 140.392 125.139 138.795 125.231 136.797L125.653 127.607C125.745 125.609 126.376 124.076 127.546 123.009C128.744 121.916 130.342 121.415 132.34 121.507L141.53 121.929C143.528 122.021 145.06 122.666 146.126 123.862C147.22 125.034 147.722 126.619 147.63 128.616L147.208 137.807ZM140.61 128.895C140.659 127.829 140.15 127.272 139.085 127.223L134.29 127.002C133.224 126.953 132.667 127.462 132.618 128.527L132.251 136.519C132.202 137.584 132.71 138.142 133.776 138.191L138.571 138.411C139.636 138.46 140.193 137.952 140.242 136.886L140.61 128.895Z" fill="#F05558"/>
<path d="M170.323 142.088C167.746 142.667 165.484 142.974 163.538 143.009L162.138 143.033C160.325 143.066 158.862 142.545 157.75 141.471C156.637 140.397 156.065 138.954 156.033 137.141L155.891 129.142C155.855 127.142 156.388 125.573 157.487 124.433C158.614 123.266 160.177 122.665 162.176 122.63L176.974 122.367L177.371 144.764C177.403 146.577 176.883 148.039 175.809 149.152C174.735 150.265 173.292 150.837 171.479 150.869C167.293 150.943 162.622 150.759 157.467 150.318L157.374 145.118C162.474 145.428 166.344 145.559 168.983 145.512C169.383 145.505 169.714 145.366 169.976 145.095C170.238 144.823 170.365 144.488 170.358 144.088L170.323 142.088ZM165.442 137.574C167.122 137.544 168.719 137.383 170.234 137.089L170.071 127.89L164.472 127.99C163.405 128.009 162.881 128.551 162.9 129.618L163.017 136.217C163.024 136.617 163.164 136.948 163.435 137.21C163.706 137.471 164.042 137.599 164.442 137.592L165.442 137.574Z" fill="#F05558"/>
<path d="M193.612 125.901C192.548 125.985 192.059 126.559 192.143 127.622L192.318 129.815L199.096 129.277L198.922 127.084C198.838 126.02 198.264 125.531 197.2 125.615L193.612 125.901ZM206.259 141.146C201.171 142.086 196.54 142.721 192.367 143.053C190.559 143.197 189.067 142.767 187.89 141.764C186.714 140.76 186.054 139.355 185.91 137.547L185.15 127.977C184.991 125.984 185.426 124.384 186.454 123.179C187.506 121.945 189.029 121.249 191.023 121.091L198.997 120.457C200.991 120.298 202.592 120.746 203.799 121.801C205.031 122.826 205.726 124.336 205.884 126.33L206.47 133.706L192.714 134.8L192.841 136.395C192.872 136.793 193.032 137.115 193.319 137.36C193.606 137.604 193.948 137.711 194.347 137.679C196.979 137.47 200.818 136.964 205.863 136.162L206.259 141.146Z" fill="#F05558"/>
<path d="M230.485 138.486C227.957 139.094 225.464 139.564 223.006 139.894C221.209 140.136 219.695 139.787 218.466 138.849C217.237 137.911 216.502 136.544 216.26 134.747L214.902 124.638L212.523 124.957L211.804 119.605L214.183 119.286L214.336 114.422L220.481 113.596L221.12 118.353L226.076 117.688L226.795 123.04L221.84 123.705L223.065 132.823C223.118 133.22 223.295 133.532 223.594 133.761C223.894 133.99 224.242 134.078 224.639 134.025L229.792 133.332L230.485 138.486Z" fill="#F05558"/>
<path d="M241.733 115.475C244.172 114.463 246.348 113.773 248.26 113.406L250.027 113.066C251.808 112.724 253.338 112.986 254.619 113.854C255.899 114.721 256.71 116.045 257.052 117.826L259.997 133.145L253.123 134.467L250.329 119.933C250.253 119.54 250.06 119.238 249.747 119.026C249.435 118.815 249.083 118.747 248.69 118.822L247.315 119.086C246.32 119.278 245.413 119.506 244.596 119.772C243.804 120.033 243.164 120.237 242.677 120.385L245.659 135.901L238.785 137.223L233.5 109.726L240.374 108.405L241.733 115.475Z" fill="#F05558"/>
<path d="M273.169 112.894C272.136 113.161 271.753 113.81 272.02 114.843L272.569 116.973L279.154 115.274L278.604 113.144C278.338 112.111 277.688 111.728 276.655 111.995L273.169 112.894ZM288.255 125.732C283.405 127.534 278.953 128.959 274.899 130.005C273.143 130.458 271.599 130.291 270.268 129.506C268.936 128.72 268.043 127.45 267.59 125.694L265.192 116.398C264.692 114.462 264.844 112.811 265.649 111.447C266.473 110.05 267.853 109.102 269.79 108.602L277.536 106.604C279.473 106.104 281.126 106.269 282.497 107.1C283.887 107.898 284.832 109.265 285.332 111.202L287.181 118.367L273.819 121.815L274.218 123.364C274.318 123.751 274.531 124.041 274.855 124.232C275.18 124.424 275.536 124.47 275.924 124.37C278.48 123.71 282.174 122.551 287.006 120.891L288.255 125.732Z" fill="#F05558"/>
<path d="M304.517 105.039C302.915 105.548 301.385 106.454 299.925 107.758L304.227 121.291L297.556 123.412L291.133 103.208L297.041 101.33L298.21 103.686C299.79 101.085 301.774 99.4051 304.163 98.6456L305.878 98.1002L307.757 104.009L304.517 105.039Z" fill="#F05558"/>
</svg>
